<?xml version="1.0" encoding="UTF-8"?>
<svg id="Layer_1" data-name="Layer 1" xmlns="http://www.w3.org/2000/svg" version="1.1" viewBox="0 0 138.88 46.68">
  <defs>
    <style>
      .cls-1 {
        fill: #000;
        stroke-width: 0px;
      }
    </style>
  </defs>
  <path class="cls-1" d="M.32,45.55V.49h14.15c5.29,0,9.21,1.17,11.76,3.5,2.59,2.39,3.88,5.49,3.88,9.28,0,5.64-2.8,8.7-8.41,9.16,3.19.47,5.53,1.52,7.02,3.15,1.49,1.63,2.23,3.99,2.23,7.06,0,3.87-1.26,6.98-3.76,9.34-2.49,2.37-5.77,3.56-9.83,3.56H.32ZM12.49,18h.82c1.46,0,2.61-.34,3.46-1.02.85-.68,1.27-1.63,1.27-2.86,0-2.61-1.43-3.91-4.29-3.91-.14,0-.31,0-.51.02-.2,0-.45.02-.74.04v7.73ZM12.49,35.77c.23.02.44.03.61.04.18.01.32.01.44.01,1.52,0,2.73-.4,3.63-1.2.9-.8,1.36-1.87,1.36-3.21s-.45-2.39-1.36-3.15-2.15-1.14-3.72-1.14h-.96v8.64Z"/>
  <path class="cls-1" d="M36.16,45.55V.49h22.62v10.59h-10.45v6.57h9.37v10.19h-9.37v6.89h10.45v10.83h-22.62Z"/>
  <path class="cls-1" d="M79.7,45.55h-12.17V11.29h-6.71V.49h25.86v10.8h-6.98v34.26Z"/>
  <path class="cls-1" d="M121.87,45.55h-13.16l-6.01-16.05c-.06-.27-.16-.63-.31-1.08s-.33-.98-.54-1.61l.09,2.98v15.76h-12.11V.49h12.46c5.49,0,9.59,1.08,12.32,3.24,3.46,2.76,5.19,6.69,5.19,11.79,0,5.45-2.33,9.21-6.97,11.29l9.05,18.74ZM102,21.35h.82c1.4,0,2.57-.53,3.5-1.61.93-1.07,1.4-2.43,1.4-4.09,0-3.37-1.76-5.05-5.28-5.05h-.44v10.74Z"/>
  <path class="cls-1" d="M138.56,39.54c0,1.83-.67,3.39-2.01,4.7-1.3,1.3-2.9,1.96-4.79,1.96s-3.49-.66-4.87-1.98c-1.34-1.34-2.01-2.97-2.01-4.87s.66-3.46,1.98-4.79c1.32-1.32,2.92-1.98,4.79-1.98s3.56.68,4.9,2.04c1.34,1.34,2.01,2.99,2.01,4.93Z"/>
</svg>